<?xml version="1.0" standalone="no"?>
<!DOCTYPE svg PUBLIC "-//W3C//DTD SVG 20010904//EN"
 "http://www.w3.org/TR/2001/REC-SVG-20010904/DTD/svg10.dtd">
<svg version="1.0" xmlns="http://www.w3.org/2000/svg"
 width="250.000000pt" height="250.000000pt" viewBox="0 0 250.000000 250.000000"
 preserveAspectRatio="xMidYMid meet">
<metadata>
Created by potrace 1.14, written by Peter Selinger 2001-2017
</metadata>
<g transform="translate(0.000000,250.000000) scale(0.100000,-0.100000)"
fill="#000000" stroke="none">
<path d="M225 2305 c-49 -26 -65 -46 -77 -92 l-10 -43 -57 0 c-31 0 -62 -5
-69 -12 -17 -17 -17 -1449 0 -1466 9 -9 118 -12 429 -12 l416 0 45 -78 c108
-183 276 -318 488 -388 80 -26 95 -28 255 -28 159 0 175 2 255 28 275 90 468
282 562 557 31 91 32 99 33 264 0 161 -1 174 -29 255 -50 148 -112 252 -207
349 -123 124 -246 191 -456 247 -10 2 -13 38 -13 133 0 149 -1 151 -88 151
-48 0 -49 0 -61 40 -21 71 -76 110 -153 110 -74 0 -133 -47 -152 -122 -6 -25
-11 -28 -45 -28 -35 0 -39 3 -45 31 -26 130 -208 162 -283 50 -13 -19 -23 -45
-23 -57 0 -22 -4 -24 -45 -24 -41 0 -45 2 -45 24 0 34 -40 88 -80 108 -94 47
-207 -3 -226 -101 -6 -29 -9 -31 -50 -31 -38 0 -44 3 -44 20 0 28 -23 70 -54
99 -34 32 -126 40 -171 16z m107 -102 c14 -12 18 -31 18 -76 0 -66 -17 -97
-55 -97 -36 0 -45 20 -45 97 0 58 3 74 18 82 25 15 43 13 64 -6z m402 -5 c10
-13 16 -43 16 -73 0 -30 -6 -60 -16 -73 -17 -24 -53 -29 -72 -10 -16 16 -16
150 0 166 19 19 55 14 72 -10z m396 3 c14 -27 13 -144 -2 -159 -17 -17 -48
-15 -70 5 -23 21 -25 118 -2 151 19 27 60 29 74 3z m391 9 c16 -9 19 -22 19
-83 0 -78 -9 -97 -46 -97 -39 0 -54 26 -54 92 0 84 29 115 81 88z m-1376 -170
c14 -64 86 -120 155 -120 68 0 150 71 150 129 0 18 6 21 45 21 34 0 45 -4 45
-15 0 -38 40 -93 83 -114 53 -26 89 -26 144 -2 41 19 83 77 83 116 0 11 11 15
44 15 42 0 44 -1 50 -35 7 -37 55 -91 93 -106 79 -30 172 14 201 94 16 45 18
47 55 47 27 0 39 -5 43 -17 30 -102 123 -156 211 -122 42 16 82 59 94 101 7
28 15 38 29 38 18 0 20 -7 20 -83 l0 -84 -92 -6 c-461 -30 -811 -403 -810
-862 0 -65 7 -137 16 -175 9 -36 16 -68 16 -72 0 -5 -162 -8 -360 -8 l-360 0
0 645 c0 629 0 645 19 645 13 0 21 -9 26 -30z m1614 -256 c17 -4 31 -10 31
-14 0 -5 23 -46 50 -93 28 -47 50 -91 50 -99 0 -7 -11 -30 -25 -50 -14 -20
-25 -39 -25 -42 0 -2 -16 -32 -36 -65 l-36 -61 -124 0 -123 0 -39 68 c-67 114
-82 142 -82 154 0 23 110 197 128 201 27 7 196 8 231 1z m-435 -107 l-26 -47
-56 0 -57 1 29 22 c29 23 129 77 134 73 1 -2 -9 -24 -24 -49z m756 -26 l25
-20 -57 -1 c-56 0 -56 0 -82 44 -14 25 -26 47 -26 50 0 9 112 -49 140 -73z
m-753 -171 c14 -25 40 -70 59 -101 19 -31 34 -63 33 -70 0 -8 -26 -59 -58
-114 l-57 -100 -129 0 -129 0 -34 60 c-19 33 -43 75 -53 93 -11 18 -19 39 -19
48 0 22 47 110 93 177 l40 58 115 -3 114 -3 25 -45z m930 -7 c47 -67 93 -155
93 -178 0 -8 -11 -33 -25 -55 -14 -22 -25 -42 -25 -45 0 -2 -14 -27 -31 -55
l-31 -50 -123 0 -124 0 -28 47 c-98 167 -99 168 -85 195 13 26 44 81 86 151
l28 47 113 0 112 0 40 -57z m-428 -320 c34 -59 61 -112 61 -119 0 -7 -23 -50
-50 -96 -28 -46 -54 -90 -59 -98 -6 -12 -35 -16 -133 -18 -138 -3 -129 -6
-170 68 -14 25 -39 68 -56 96 -29 50 -30 52 -12 80 9 16 39 66 65 111 l48 82
123 0 122 0 61 -106z m-897 -161 c-31 -54 -42 -42 -42 45 0 93 8 103 40 47
l27 -47 -25 -45z m1468 48 c0 -43 -4 -81 -9 -84 -5 -3 -20 13 -34 36 l-25 42
27 47 c14 26 29 45 33 43 5 -3 8 -41 8 -84z m-1067 -115 c75 -125 94 -164 87
-172 -4 -4 -19 -28 -33 -53 -63 -114 -79 -140 -90 -147 -7 -4 -60 -8 -118 -8
l-106 -1 -33 43 c-18 24 -49 77 -70 119 l-38 77 30 51 c17 28 40 67 50 86 36
63 31 61 166 58 l126 -3 29 -50z m917 48 c0 -5 23 -46 50 -92 28 -46 50 -92
50 -102 0 -24 -66 -146 -105 -195 l-33 -40 -111 1 c-61 1 -112 3 -114 6 -2 2
-30 52 -63 110 l-60 105 23 40 c12 21 40 69 60 106 l38 68 133 0 c72 0 132 -3
132 -7z m-460 -298 c9 -16 38 -64 63 -107 l45 -76 -22 -34 c-12 -18 -39 -63
-59 -99 -35 -64 -38 -66 -83 -73 -59 -8 -137 -7 -188 2 -37 7 -42 12 -96 107
l-56 100 29 50 c16 28 41 70 55 95 41 74 32 71 170 68 l125 -3 17 -30z m-461
-285 c17 -27 28 -50 25 -50 -5 0 -122 68 -154 90 -11 7 0 10 42 10 l56 0 31
-50z m761 40 c-32 -22 -149 -90 -154 -90 -3 0 6 22 22 50 l27 50 60 0 c44 0
56 -3 45 -10z"/>
<path d="M177 1792 c-15 -16 -17 -46 -17 -214 0 -176 2 -196 18 -211 27 -25
402 -25 426 -1 24 23 24 405 0 428 -13 14 -47 16 -213 16 -179 0 -199 -2 -214
-18z m341 -210 l3 -122 -126 0 -125 0 0 118 c0 65 2 121 4 123 2 2 58 4 123 3
l118 0 3 -122z"/>
</g>
</svg>
